<svg width="171" height="38" viewBox="0 0 171 38" fill="none" xmlns="http://www.w3.org/2000/svg">
<path d="M60.72 9.4V29H57.5V15.028L51.536 24.884H51.144L45.18 15V29H41.96V9.4H45.432L51.34 19.2L57.276 9.4H60.72ZM67.288 12.34C66.9146 12.7133 66.4666 12.9 65.944 12.9C65.4213 12.9 64.964 12.7133 64.572 12.34C64.1986 11.948 64.012 11.4907 64.012 10.968C64.012 10.4453 64.1986 9.99733 64.572 9.624C64.9453 9.232 65.4026 9.036 65.944 9.036C66.4853 9.036 66.9426 9.232 67.316 9.624C67.6893 9.99733 67.876 10.4453 67.876 10.968C67.876 11.4907 67.68 11.948 67.288 12.34ZM64.432 29V15H67.456V29H64.432ZM77.5751 29.364C75.4658 29.364 73.7018 28.6547 72.2831 27.236C70.8831 25.8173 70.1831 24.072 70.1831 22C70.1831 19.9093 70.8831 18.164 72.2831 16.764C73.7018 15.3453 75.4658 14.636 77.5751 14.636C78.9378 14.636 80.1791 14.9627 81.2991 15.616C82.4191 16.2693 83.2591 17.1467 83.8191 18.248L81.2151 19.76C80.8978 19.088 80.4125 18.5653 79.7591 18.192C79.1245 17.8 78.3871 17.604 77.5471 17.604C76.3151 17.604 75.2791 18.024 74.4391 18.864C73.6178 19.704 73.2071 20.7493 73.2071 22C73.2071 23.2507 73.6178 24.296 74.4391 25.136C75.2791 25.976 76.3151 26.396 77.5471 26.396C78.3685 26.396 79.1058 26.2 79.7591 25.808C80.4311 25.416 80.9351 24.8933 81.2711 24.24L83.8751 25.724C83.2778 26.844 82.4191 27.7307 81.2991 28.384C80.1791 29.0373 78.9378 29.364 77.5751 29.364ZM105.099 9.4V29H101.879V15.028L95.9149 24.884H95.5229L89.5589 15V29H86.3389V9.4H89.8109L95.7189 19.2L101.655 9.4H105.099ZM111.667 12.34C111.294 12.7133 110.846 12.9 110.323 12.9C109.8 12.9 109.343 12.7133 108.951 12.34C108.578 11.948 108.391 11.4907 108.391 10.968C108.391 10.4453 108.578 9.99733 108.951 9.624C109.324 9.232 109.782 9.036 110.323 9.036C110.864 9.036 111.322 9.232 111.695 9.624C112.068 9.99733 112.255 10.4453 112.255 10.968C112.255 11.4907 112.059 11.948 111.667 12.34ZM108.811 29V15H111.835V29H108.811ZM122.71 14.636C124.315 14.636 125.613 15.1493 126.602 16.176C127.591 17.2027 128.086 18.612 128.086 20.404V29H125.062V20.712C125.062 19.6667 124.782 18.864 124.222 18.304C123.662 17.744 122.897 17.464 121.926 17.464C120.862 17.464 120.003 17.8 119.35 18.472C118.697 19.1253 118.37 20.1333 118.37 21.496V29H115.346V15H118.37V16.792C119.285 15.3547 120.731 14.636 122.71 14.636ZM148.979 29V8.56H152.003V29H148.979ZM157.894 23.288C158.118 24.352 158.631 25.1733 159.434 25.752C160.237 26.312 161.217 26.592 162.374 26.592C163.979 26.592 165.183 26.0133 165.986 24.856L168.478 26.312C167.097 28.3467 165.053 29.364 162.346 29.364C160.069 29.364 158.23 28.6733 156.83 27.292C155.43 25.892 154.73 24.128 154.73 22C154.73 19.9093 155.421 18.164 156.802 16.764C158.183 15.3453 159.957 14.636 162.122 14.636C164.175 14.636 165.855 15.3547 167.162 16.792C168.487 18.2293 169.15 19.9747 169.15 22.028C169.15 22.3453 169.113 22.7653 169.038 23.288H157.894ZM157.866 20.824H166.098C165.893 19.6853 165.417 18.8267 164.67 18.248C163.942 17.6693 163.083 17.38 162.094 17.38C160.974 17.38 160.041 17.688 159.294 18.304C158.547 18.92 158.071 19.76 157.866 20.824Z" fill="white"/>
<path d="M142.486 15H145.454V28.356C145.454 30.484 144.754 32.1173 143.354 33.256C141.954 34.3947 140.255 34.964 138.258 34.964C135.029 34.964 132.817 33.8347 131.622 31.576L134.226 30.064C134.954 31.5013 136.317 32.22 138.314 32.22C139.621 32.22 140.638 31.8747 141.366 31.184C142.113 30.512 142.486 29.5693 142.486 28.356V26.648C141.347 28.272 139.723 29.084 137.614 29.084C135.635 29.084 133.965 28.384 132.602 26.984C131.239 25.5653 130.558 23.8573 130.558 21.86C130.558 19.8627 131.239 18.164 132.602 16.764C133.965 15.3453 135.635 14.636 137.614 14.636C139.723 14.636 141.347 15.448 142.486 17.072V15ZM134.842 24.996C135.701 25.836 136.765 26.256 138.034 26.256C139.303 26.256 140.358 25.836 141.198 24.996C142.057 24.156 142.486 23.1107 142.486 21.86C142.486 20.6093 142.057 19.564 141.198 18.724C140.358 17.884 139.303 17.464 138.034 17.464C136.765 17.464 135.701 17.884 134.842 18.724C134.002 19.564 133.582 20.6093 133.582 21.86C133.582 23.1107 134.002 24.156 134.842 24.996Z" fill="#FFDA17"/>
<path d="M23.6018 20.8509C23.4539 20.8509 23.3338 20.7308 23.3338 20.5829V18.9104C23.3338 18.7624 23.4539 18.6423 23.6018 18.6423C23.7498 18.6423 23.8699 18.7624 23.8699 18.9104V20.585C23.8699 20.7308 23.7498 20.8509 23.6018 20.8509Z" fill="white"/>
<path d="M8.68856 20.8509C8.54061 20.8509 8.42053 20.7308 8.42053 20.5829V18.9104C8.42053 18.7624 8.54061 18.6423 8.68856 18.6423C8.83652 18.6423 8.9566 18.7624 8.9566 18.9104V20.585C8.9566 20.7308 8.83652 20.8509 8.68856 20.8509Z" fill="white"/>
<path d="M16.0991 28.9797C12.649 28.9797 9.8443 25.892 9.8443 22.0945V19.843H10.4597V22.0966C10.4597 25.5532 12.9899 28.3643 16.0991 28.3643C19.2083 28.3643 21.7385 25.5532 21.7385 22.0966V19.843H22.3561V22.0966C22.3561 25.892 19.5492 28.9797 16.0991 28.9797Z" fill="white"/>
<path d="M9.94939 20.8507C9.54626 20.8507 9.22034 20.5656 9.22034 20.2139V19.1632C9.22034 18.8116 9.54841 18.5264 9.94939 18.5264H22.251C22.6541 18.5264 22.9801 18.8116 22.9801 19.1632V20.2139C22.9801 20.5656 22.652 20.8507 22.251 20.8507H9.94939Z" fill="white"/>
<path d="M16.0991 9.16675C13.3158 9.16675 11.0601 11.4225 11.0601 14.2058V17.9132H21.1381V14.2058C21.1402 11.4225 18.8823 9.16675 16.0991 9.16675ZM11.6819 16.6588C11.5382 16.6588 11.4203 16.5409 11.4203 16.3972C11.4203 16.2535 11.5382 16.1356 11.6819 16.1356C11.8256 16.1356 11.9435 16.2535 11.9435 16.3972C11.9435 16.5409 11.8277 16.6588 11.6819 16.6588ZM11.6819 15.3058C11.5382 15.3058 11.4203 15.1878 11.4203 15.0442C11.4203 14.9005 11.5382 14.7826 11.6819 14.7826C11.8256 14.7826 11.9435 14.9005 11.9435 15.0442C11.9435 15.19 11.8277 15.3058 11.6819 15.3058ZM11.6819 13.9549C11.5382 13.9549 11.4203 13.8369 11.4203 13.6933C11.4203 13.5496 11.5382 13.4317 11.6819 13.4317C11.8256 13.4317 11.9435 13.5496 11.9435 13.6933C11.9435 13.8369 11.8277 13.9549 11.6819 13.9549ZM12.7819 17.3342C12.6382 17.3342 12.5203 17.2163 12.5203 17.0726C12.5203 16.929 12.6382 16.811 12.7819 16.811C12.9256 16.811 13.0435 16.929 13.0435 17.0726C13.0435 17.2163 12.9277 17.3342 12.7819 17.3342ZM12.7819 15.9812C12.6382 15.9812 12.5203 15.8633 12.5203 15.7196C12.5203 15.5759 12.6382 15.458 12.7819 15.458C12.9256 15.458 13.0435 15.5759 13.0435 15.7196C13.0456 15.8654 12.9277 15.9812 12.7819 15.9812ZM12.7819 14.6303C12.6382 14.6303 12.5203 14.5124 12.5203 14.3687C12.5203 14.2251 12.6382 14.1071 12.7819 14.1071C12.9256 14.1071 13.0435 14.2251 13.0435 14.3687C13.0456 14.5124 12.9277 14.6303 12.7819 14.6303ZM12.7819 13.2773C12.6382 13.2773 12.5203 13.1594 12.5203 13.0157C12.5203 12.872 12.6382 12.7541 12.7819 12.7541C12.9256 12.7541 13.0435 12.872 13.0435 13.0157C13.0456 13.1615 12.9277 13.2773 12.7819 13.2773ZM12.7819 11.9264C12.6382 11.9264 12.5203 11.8085 12.5203 11.6648C12.5203 11.5211 12.6382 11.4032 12.7819 11.4032C12.9256 11.4032 13.0435 11.5211 13.0435 11.6648C13.0456 11.8085 12.9277 11.9264 12.7819 11.9264ZM13.8819 16.6588C13.7382 16.6588 13.6203 16.5409 13.6203 16.3972C13.6203 16.2535 13.7382 16.1356 13.8819 16.1356C14.0256 16.1356 14.1435 16.2535 14.1435 16.3972C14.1435 16.5409 14.0256 16.6588 13.8819 16.6588ZM13.8819 15.3058C13.7382 15.3058 13.6203 15.1878 13.6203 15.0442C13.6203 14.9005 13.7382 14.7826 13.8819 14.7826C14.0256 14.7826 14.1435 14.9005 14.1435 15.0442C14.1435 15.19 14.0256 15.3058 13.8819 15.3058ZM13.8819 13.9549C13.7382 13.9549 13.6203 13.8369 13.6203 13.6933C13.6203 13.5496 13.7382 13.4317 13.8819 13.4317C14.0256 13.4317 14.1435 13.5496 14.1435 13.6933C14.1435 13.8369 14.0256 13.9549 13.8819 13.9549ZM13.8819 12.6019C13.7382 12.6019 13.6203 12.4839 13.6203 12.3403C13.6203 12.1966 13.7382 12.0787 13.8819 12.0787C14.0256 12.0787 14.1435 12.1966 14.1435 12.3403C14.1435 12.4861 14.0256 12.6019 13.8819 12.6019ZM13.8819 11.251C13.7382 11.251 13.6203 11.133 13.6203 10.9894C13.6203 10.8457 13.7382 10.7278 13.8819 10.7278C14.0256 10.7278 14.1435 10.8457 14.1435 10.9894C14.1435 11.133 14.0256 11.251 13.8819 11.251ZM14.9819 17.3342C14.8382 17.3342 14.7203 17.2163 14.7203 17.0726C14.7203 16.929 14.8382 16.811 14.9819 16.811C15.1256 16.811 15.2435 16.929 15.2435 17.0726C15.2435 17.2163 15.1256 17.3342 14.9819 17.3342ZM14.9819 15.9812C14.8382 15.9812 14.7203 15.8633 14.7203 15.7196C14.7203 15.5759 14.8382 15.458 14.9819 15.458C15.1256 15.458 15.2435 15.5759 15.2435 15.7196C15.2435 15.8654 15.1256 15.9812 14.9819 15.9812ZM14.9819 14.6303C14.8382 14.6303 14.7203 14.5124 14.7203 14.3687C14.7203 14.2251 14.8382 14.1071 14.9819 14.1071C15.1256 14.1071 15.2435 14.2251 15.2435 14.3687C15.2435 14.5124 15.1256 14.6303 14.9819 14.6303ZM14.9819 13.2773C14.8382 13.2773 14.7203 13.1594 14.7203 13.0157C14.7203 12.872 14.8382 12.7541 14.9819 12.7541C15.1256 12.7541 15.2435 12.872 15.2435 13.0157C15.2435 13.1615 15.1256 13.2773 14.9819 13.2773ZM14.9819 11.9264C14.8382 11.9264 14.7203 11.8085 14.7203 11.6648C14.7203 11.5211 14.8382 11.4032 14.9819 11.4032C15.1256 11.4032 15.2435 11.5211 15.2435 11.6648C15.2435 11.8085 15.1256 11.9264 14.9819 11.9264ZM14.9819 10.5755C14.8382 10.5755 14.7203 10.4576 14.7203 10.3139C14.7203 10.1703 14.8382 10.0523 14.9819 10.0523C15.1256 10.0523 15.2435 10.1703 15.2435 10.3139C15.2435 10.4576 15.1256 10.5755 14.9819 10.5755ZM16.0819 16.6588C15.9382 16.6588 15.8203 16.5409 15.8203 16.3972C15.8203 16.2535 15.9382 16.1356 16.0819 16.1356C16.2256 16.1356 16.3435 16.2535 16.3435 16.3972C16.3435 16.5409 16.2277 16.6588 16.0819 16.6588ZM16.0819 15.3058C15.9382 15.3058 15.8203 15.1878 15.8203 15.0442C15.8203 14.9005 15.9382 14.7826 16.0819 14.7826C16.2256 14.7826 16.3435 14.9005 16.3435 15.0442C16.3435 15.19 16.2277 15.3058 16.0819 15.3058ZM16.0819 13.9549C15.9382 13.9549 15.8203 13.8369 15.8203 13.6933C15.8203 13.5496 15.9382 13.4317 16.0819 13.4317C16.2256 13.4317 16.3435 13.5496 16.3435 13.6933C16.3435 13.8369 16.2277 13.9549 16.0819 13.9549ZM16.0819 12.6019C15.9382 12.6019 15.8203 12.4839 15.8203 12.3403C15.8203 12.1966 15.9382 12.0787 16.0819 12.0787C16.2256 12.0787 16.3435 12.1966 16.3435 12.3403C16.3435 12.4861 16.2277 12.6019 16.0819 12.6019ZM16.0819 11.251C15.9382 11.251 15.8203 11.133 15.8203 10.9894C15.8203 10.8457 15.9382 10.7278 16.0819 10.7278C16.2256 10.7278 16.3435 10.8457 16.3435 10.9894C16.3435 11.133 16.2277 11.251 16.0819 11.251ZM17.1819 17.3342C17.0383 17.3342 16.9203 17.2163 16.9203 17.0726C16.9203 16.929 17.0383 16.811 17.1819 16.811C17.3256 16.811 17.4435 16.929 17.4435 17.0726C17.4435 17.2163 17.3277 17.3342 17.1819 17.3342ZM17.1819 15.9812C17.0383 15.9812 16.9203 15.8633 16.9203 15.7196C16.9203 15.5759 17.0383 15.458 17.1819 15.458C17.3256 15.458 17.4435 15.5759 17.4435 15.7196C17.4435 15.8654 17.3277 15.9812 17.1819 15.9812ZM17.1819 14.6303C17.0383 14.6303 16.9203 14.5124 16.9203 14.3687C16.9203 14.2251 17.0383 14.1071 17.1819 14.1071C17.3256 14.1071 17.4435 14.2251 17.4435 14.3687C17.4435 14.5124 17.3277 14.6303 17.1819 14.6303ZM17.1819 13.2773C17.0383 13.2773 16.9203 13.1594 16.9203 13.0157C16.9203 12.872 17.0383 12.7541 17.1819 12.7541C17.3256 12.7541 17.4435 12.872 17.4435 13.0157C17.4435 13.1615 17.3277 13.2773 17.1819 13.2773ZM17.1819 11.9264C17.0383 11.9264 16.9203 11.8085 16.9203 11.6648C16.9203 11.5211 17.0383 11.4032 17.1819 11.4032C17.3256 11.4032 17.4435 11.5211 17.4435 11.6648C17.4435 11.8085 17.3277 11.9264 17.1819 11.9264ZM17.1819 10.5755C17.0383 10.5755 16.9203 10.4576 16.9203 10.3139C16.9203 10.1703 17.0383 10.0523 17.1819 10.0523C17.3256 10.0523 17.4435 10.1703 17.4435 10.3139C17.4435 10.4576 17.3277 10.5755 17.1819 10.5755ZM18.2819 16.6588C18.1383 16.6588 18.0203 16.5409 18.0203 16.3972C18.0203 16.2535 18.1383 16.1356 18.2819 16.1356C18.4256 16.1356 18.5435 16.2535 18.5435 16.3972C18.5435 16.5409 18.4277 16.6588 18.2819 16.6588ZM18.2819 15.3058C18.1383 15.3058 18.0203 15.1878 18.0203 15.0442C18.0203 14.9005 18.1383 14.7826 18.2819 14.7826C18.4256 14.7826 18.5435 14.9005 18.5435 15.0442C18.5435 15.19 18.4277 15.3058 18.2819 15.3058ZM18.2819 13.9549C18.1383 13.9549 18.0203 13.8369 18.0203 13.6933C18.0203 13.5496 18.1383 13.4317 18.2819 13.4317C18.4256 13.4317 18.5435 13.5496 18.5435 13.6933C18.5435 13.8369 18.4277 13.9549 18.2819 13.9549ZM18.2819 12.6019C18.1383 12.6019 18.0203 12.4839 18.0203 12.3403C18.0203 12.1966 18.1383 12.0787 18.2819 12.0787C18.4256 12.0787 18.5435 12.1966 18.5435 12.3403C18.5435 12.4861 18.4277 12.6019 18.2819 12.6019ZM18.2819 11.251C18.1383 11.251 18.0203 11.133 18.0203 10.9894C18.0203 10.8457 18.1383 10.7278 18.2819 10.7278C18.4256 10.7278 18.5435 10.8457 18.5435 10.9894C18.5435 11.133 18.4277 11.251 18.2819 11.251ZM19.3819 17.3342C19.2383 17.3342 19.1203 17.2163 19.1203 17.0726C19.1203 16.929 19.2383 16.811 19.3819 16.811C19.5256 16.811 19.6435 16.929 19.6435 17.0726C19.6435 17.2163 19.5256 17.3342 19.3819 17.3342ZM19.3819 15.9812C19.2383 15.9812 19.1203 15.8633 19.1203 15.7196C19.1203 15.5759 19.2383 15.458 19.3819 15.458C19.5256 15.458 19.6435 15.5759 19.6435 15.7196C19.6435 15.8654 19.5256 15.9812 19.3819 15.9812ZM19.3819 14.6303C19.2383 14.6303 19.1203 14.5124 19.1203 14.3687C19.1203 14.2251 19.2383 14.1071 19.3819 14.1071C19.5256 14.1071 19.6435 14.2251 19.6435 14.3687C19.6435 14.5124 19.5256 14.6303 19.3819 14.6303ZM19.3819 13.2773C19.2383 13.2773 19.1203 13.1594 19.1203 13.0157C19.1203 12.872 19.2383 12.7541 19.3819 12.7541C19.5256 12.7541 19.6435 12.872 19.6435 13.0157C19.6435 13.1615 19.5256 13.2773 19.3819 13.2773ZM19.3819 11.9264C19.2383 11.9264 19.1203 11.8085 19.1203 11.6648C19.1203 11.5211 19.2383 11.4032 19.3819 11.4032C19.5256 11.4032 19.6435 11.5211 19.6435 11.6648C19.6435 11.8085 19.5256 11.9264 19.3819 11.9264ZM20.4819 16.6588C20.3383 16.6588 20.2203 16.5409 20.2203 16.3972C20.2203 16.2535 20.3383 16.1356 20.4819 16.1356C20.6256 16.1356 20.7435 16.2535 20.7435 16.3972C20.7435 16.5409 20.6256 16.6588 20.4819 16.6588ZM20.4819 15.3058C20.3383 15.3058 20.2203 15.1878 20.2203 15.0442C20.2203 14.9005 20.3383 14.7826 20.4819 14.7826C20.6256 14.7826 20.7435 14.9005 20.7435 15.0442C20.7435 15.19 20.6256 15.3058 20.4819 15.3058ZM20.4819 13.9549C20.3383 13.9549 20.2203 13.8369 20.2203 13.6933C20.2203 13.5496 20.3383 13.4317 20.4819 13.4317C20.6256 13.4317 20.7435 13.5496 20.7435 13.6933C20.7435 13.8369 20.6256 13.9549 20.4819 13.9549Z" fill="#FFDA17"/>
<path d="M11.0601 21.6077V22.2938C11.0601 25.0771 13.3158 27.3328 16.0991 27.3328C18.8823 27.3328 21.1381 25.0771 21.1381 22.2938V21.6077H11.0601Z" fill="#FFDA17"/>
<path d="M16.9718 28.656H15.2264V34.2461H16.9718V28.656Z" fill="white"/>
<path d="M21.6678 36.0301C21.6678 36.0301 20.5206 33.8215 16.0992 33.8215C11.6777 33.8215 10.5305 36.0301 10.5305 36.0301H16.0992H21.6678Z" fill="white"/>
<path d="M29.7431 13.8305H28.2571C28.2571 3.62809 21.6442 1.48597 16.0991 1.48597C10.5541 1.48597 3.94117 3.62809 3.94117 13.8305H2.4552C2.45734 1.79689 11.0044 0 16.0991 0C21.196 0 29.7431 1.79689 29.7431 13.8305Z" fill="white"/>
<path d="M25.892 25.4224C25.3859 25.4224 24.9742 24.8263 24.9742 24.0929V13.1036C24.9742 12.3703 25.3859 11.7742 25.892 11.7742H26.1665C26.6725 11.7742 27.0842 12.3703 27.0842 13.1036V24.0929C27.0842 24.8263 26.6725 25.4224 26.1665 25.4224H25.892Z" fill="white"/>
<path d="M27.8197 12.7454C27.8475 12.859 27.8626 12.9791 27.8626 13.1013V24.0906C27.8626 24.3115 27.8154 24.5216 27.7318 24.7103C29.5994 24.468 32.2047 23.3101 32.2047 18.7214C32.2047 14.2056 29.6787 13.0134 27.8197 12.7454Z" fill="white"/>
<path d="M6.31269 25.4224C6.81874 25.4224 7.23044 24.8263 7.23044 24.0929V13.1036C7.23044 12.3703 6.81874 11.7742 6.31269 11.7742H6.03823C5.53218 11.7742 5.12048 12.3703 5.12048 13.1036V24.0929C5.12048 24.8263 5.53218 25.4224 6.03823 25.4224H6.31269Z" fill="white"/>
<path d="M4.38501 12.7454C4.35714 12.859 4.34213 12.9791 4.34213 13.1013V24.0906C4.34213 24.3115 4.3893 24.5216 4.47293 24.7103C2.60528 24.4702 0 23.3123 0 18.7236C0 14.2056 2.52379 13.0134 4.38501 12.7454Z" fill="white"/>
</svg>
